<svg version="1.1" id="Warstwa_1" xmlns="http://www.w3.org/2000/svg" xmlns:xlink="http://www.w3.org/1999/xlink" x="0px" y="0px"
	 width="91.1px" height="62.8px" viewBox="0 0 91.1 62.8" style="enable-background:new 0 0 91.1 62.8;" xml:space="preserve">
<g>
	<g transform="translate(-1085 -2554)" style="opacity:0.1;">
		<g>
			<path id="je9sa" style="fill:#244CB3;" d="M1176.1,2585.9c0,7-0.8,13.6-5.1,18.9c-3.7,4.7-10.1,8.2-15.8,10.1
				c-3.9,1.4-9.7,1.9-12.5,1.9v-14.4c1.9-0.2,4.5-0.8,6.8-1.9c3.3-1.8,6-4.5,6-9.7v-3.3h-17.7V2554h38.1v31.9H1176.1z
				 M1123.1,2585.9c0,7-0.8,13.6-5.1,18.9c-3.7,4.7-10.1,8.2-15.8,10.1c-3.9,1.4-9.7,1.9-12.5,1.9v-14.4c1.9-0.2,4.5-0.8,6.8-1.9
				c3.3-1.8,6-4.5,6-9.7v-3.3H1085V2554h38.1V2585.9z"/>
		</g>
	</g>
</g>
</svg>
