<?xml version="1.0" encoding="UTF-8"?>
<svg width="18px" height="11px" viewBox="0 0 18 11" version="1.1" xmlns="http://www.w3.org/2000/svg" xmlns:xlink="http://www.w3.org/1999/xlink">
    <g id="Universal" stroke="none" stroke-width="1" fill="none" fill-rule="evenodd">
        <g id="Universal---Icons" transform="translate(-171.000000, -643.000000)" fill="#244cb3">
            <g id="Icon/Caret/Lg" transform="translate(171.000000, 643.000000)">
                <path d="M9.93222199,0.39519233 L9.93222199,0.39519233 L9.93222199,0.39519233 C9.86610214,0.345883768 9.79584015,0.302388249 9.72222199,0.26519233 C9.64438331,0.20372498 9.5606401,0.150129324 9.47222199,0.10519233 C9.38109699,0.0760026764 9.28730641,0.0559046952 9.19222199,0.0451923296 C9.01041806,-0.0150641099 8.81402593,-0.0150641099 8.63222199,0.0451923296 C8.53713757,0.0559046952 8.44334699,0.0760026764 8.35222199,0.10519233 C8.26380388,0.150129324 8.18006067,0.20372498 8.10222199,0.26519233 C8.02860384,0.302388249 7.95834184,0.345883768 7.89222199,0.39519233 L7.89222199,0.39519233 L7.89222199,0.39519233 L0.392221992,8.39519233 C-0.161406984,9.00161621 -0.124544492,9.94047005 0.474927251,10.5016194 C1.07439899,11.0627687 2.01363956,11.0376187 2.58222199,10.4451923 L8.99222199,3.61519233 L15.402222,10.4451923 C15.9708044,11.0376187 16.910045,11.0627687 17.5095167,10.5016194 C18.1089885,9.94047005 18.145851,9.00161621 17.592222,8.39519233 L9.93222199,0.39519233 Z" transform="translate(8.992222, 5.453269) rotate(-180.000000) translate(-8.992222, -5.453269) "></path>
            </g>
        </g>
    </g>
</svg>
